# xmcd CD database file
#
# Track frame offsets:
#	150
#	15432
#	25304
#	79933
#	89150
#	96220
#	102882
#	108071
#	114421
#	127253
#	137555
#	146002
#	163586
#
# Disc length: 2559 seconds
#
# Revision: 0
# Processed by: cddbd v1.5.1PL0 Copyright (c) Steve Scherf et al.
# Submitted via: CDex 1.51
#
DISCID=a909fd0d
DTITLE=坂本　龍一 - L.O.L.(LACK　OF　LOVE)
DYEAR=2000
DGENRE=J-pop
TTITLE0=OPENING　THEME
TTITLE1=BIRTH
TTITLE2=ARTIFICIAL　PARADISE
TTITLE3=TRANSFORMATION
TTITLE4=MISSION
TTITLE5=DREAM
TTITLE6=UNITY
TTITLE7=CRISIS
TTITLE8=EXPERIMENT
TTITLE9=DECISION
TTITLE10=CHANGE
TTITLE11=STORM
TTITLE12=ENDING　THEME
EXTD=YEAR: 2000
EXTT0=
EXTT1=
EXTT2=
EXTT3=
EXTT4=
EXTT5=
EXTT6=
EXTT7=
EXTT8=
EXTT9=
EXTT10=
EXTT11=
EXTT12=
PLAYORDER=
